<?xml version="1.0" encoding="utf-8"?>
<?xml-stylesheet type="text/xsl" href="rss1.xsl"?>
<rss version="2.0" xmlns:atom="http://www.w3.org/2005/Atom" xmlns:content="http://purl.org/rss/1.0/modules/content/" xmlns:dc="http://purl.org/dc/elements/1.1/" xmlns:media="http://search.yahoo.com/mrss/">
<channel>
 <title>Getty</title>
 <link>http://www.gettyimg.com/</link>
 <atom:link href="http://www.gettyimg.com/" rel="self" type="application/rss+xml" />

 
                <item>
                <title><![CDATA[【Singles (lossless)】FLAC - Culture Club - Do You Really Want To Hurt Me (Maxi CD Single) (EU) (1992) [FLAC]]]></title>
                <link><![CDATA[https://sharemania.us/threads/culture-club-do-you-really-want-to-hurt-me-maxi-cd-single-eu-1992-flac.245209/]]></link>
                <description><![CDATA[<article>
<blockquote class="messageText SelectQuoteContainer ugc baseHtml">
<div style="text-align: center"><img src="https://i123.fastpic.org/big/2024/0525/b4/3f975cb6b80efc96d26ff5e188dbf7b4.jpg" class="bbCodeImage LbImage" alt="[​IMG]" data-url="https://i123.fastpic.org/big/2024/0525/b4/3f975cb6b80efc96d26ff5e188dbf7b4.jpg" style=""><br>
<br>
<b># 665 483</b> <i>(Maxi CD Single) (EU)</i><br>
<b><a href="https://www.discogs.com/release/606063-Culture-Club-Do-You-Really-Want-To-Hurt-Me" target="_blank" class="externalLink" rel="nofollow">DISCOGS</a></b><br>
01<b> Do You Really Want To Hurt Me </b>(4:25)<br>
02<b> Do You Really Want To Hurt Me </b>(Dub Mix) (3:39)<br>
03<b> Bow Down Mister </b>(Sitari Bizarri Mix) (6:26)<br>
<div class="bbCodeBlock bbCodeVfcHH HiddenContent">
<div class="attribution type">Hidden Content:</div>
<blockquote>You must reply before you can see the hidden data contained here.</blockquote>
</div></div>
<div class="messageTextEndMarker">&nbsp;</div>
</blockquote>
</article>]]></description>
                <author><![CDATA[Bnik]]></author>
                </item>

                
                <item>
                <title><![CDATA[【UPSCALED】Kylie Minogue - The One (2008) | 1080p AI Upscale]]></title>
                <link><![CDATA[https://sharemania.us/threads/kylie-minogue-the-one-2008-1080p-ai-upscale.245200/]]></link>
                <description><![CDATA[<article>
<blockquote class="messageText SelectQuoteContainer ugc baseHtml">
<img src="https://i.imgur.com/GwYNuOP.jpeg" class="bbCodeImage LbImage" alt="[​IMG]" data-url="https://i.imgur.com/GwYNuOP.jpeg" style=""><br>
<img src="https://i.imgur.com/hCmM9N2.jpeg" class="bbCodeImage LbImage" alt="[​IMG]" data-url="https://i.imgur.com/hCmM9N2.jpeg" style=""><br>
<img src="https://i.imgur.com/GOI8V4v.jpeg" class="bbCodeImage LbImage" alt="[​IMG]" data-url="https://i.imgur.com/GOI8V4v.jpeg" style=""><br>
<img src="https://i.imgur.com/F0UbHx7.jpeg" class="bbCodeImage LbImage" alt="[​IMG]" data-url="https://i.imgur.com/F0UbHx7.jpeg" style=""><br>
<img src="https://i.imgur.com/XOAj0K9.jpeg" class="bbCodeImage LbImage" alt="[​IMG]" data-url="https://i.imgur.com/XOAj0K9.jpeg" style=""><br>
<br>
<div class="bbCodeBlock bbCodeVfcHH HiddenContent">
<div class="attribution type">Hidden Content:</div>
<blockquote>You must reply before you can see the hidden data contained here.</blockquote>
</div>
<div class="ToggleTriggerAnchor bbCodeSpoilerContainer">
<button type="button" class="button bbCodeSpoilerButton ToggleTrigger Tooltip JsOnly" data-target="> .SpoilerTarget"><span>Spoiler: <span class="SpoilerTitle">MediaInfo</span></span></button>
<div class="SpoilerTarget bbCodeSpoilerText"><span style="font-family: 'Courier New'">General<br>
Format : MPEG-4<br>
Format profile : Base Media / Version 2<br>
Codec ID : mp42 (isom/mp42)<br>
File size : 632 MiB<br>
Duration : 3 min 42 s<br>
Overall bit rate mode : Variable<br>
Overall bit rate : 23.9 Mb/s<br>
Frame rate : 25.000 FPS<br>
<br>
Video<br>
ID : 2<br>
Format : AVC<br>
Format/Info : Advanced Video Codec<br>
Format profile : High@L5.1<br>
Format settings : CABAC / 3 Ref Frames<br>
Format settings, CABAC : Yes<br>
Format settings, Reference fra : 3 frames<br>
Codec ID : avc1<br>
Codec ID/Info : Advanced Video Coding<br>
Duration : 3 min 42 s<br>
Bit rate mode : Variable<br>
Bit rate : 23.7 Mb/s<br>
Maximum bit rate : 30.0 Mb/s<br>
Width : 1 920 pixels<br>
Height : 1 080 pixels<br>
Display aspect ratio : 16:9<br>
Frame rate mode : Constant<br>
Frame rate : 25.000 FPS<br>
Standard : PAL<br>
Color space : YUV<br>
Chroma subsampling : 4:2:0<br>
Bit depth : 8 bits<br>
Scan type : Progressive<br>
Bits/(Pixel*Frame) : 0.457<br>
Stream size : 627 MiB (99%)<br>
Language : English<br>
Color range : Limited<br>
Color primaries : BT.709<br>
Transfer characteristics : BT.709<br>
Matrix coefficients : BT.709<br>
Codec configuration box : avcC<br>
<br>
Audio<br>
ID : 1<br>
Format : AAC LC<br>
Format/Info : Advanced Audio Codec Low Complexity<br>
Codec ID : mp4a-40-2<br>
Duration : 3 min 42 s<br>
Bit rate mode : Variable<br>
Bit rate : 192 kb/s<br>
Maximum bit rate : 455 kb/s<br>
Channel(s) : 2 channels<br>
Channel layout : L R<br>
Sampling rate : 48.0 kHz<br>
Frame rate : 46.875 FPS (1024 SPF)<br>
Compression mode : Lossy<br>
Stream size : 5.02 MiB (1%)<br>
Language : English</span></div>
</div><br>
SOURCE: Master 576p
<div class="messageTextEndMarker">&nbsp;</div>
</blockquote>
</article>]]></description>
                <author><![CDATA[lulis]]></author>
                </item>

                </channel></rss>